<svg xmlns="http://www.w3.org/2000/svg" viewBox="0 0 720 320" style="font-family:sans-serif">
    <text x="360" y="14" text-anchor="middle" font-size="13" font-weight="700" fill="#102a43">Cumulative global-unique successes (26)</text>
    <line x1="60" y1="270" x2="700" y2="270" stroke="#94a3b8" stroke-width="1.2"/>
    <line x1="60" y1="30" x2="60" y2="270" stroke="#94a3b8" stroke-width="1.2"/>
    <line x1="60.0" y1="270" x2="60.0" y2="275" stroke="#94a3b8"/><text x="60.0" y="288" text-anchor="middle" font-size="10" fill="#475569">0.0</text><line x1="188.0" y1="270" x2="188.0" y2="275" stroke="#94a3b8"/><text x="188.0" y="288" text-anchor="middle" font-size="10" fill="#475569">8.9</text><line x1="316.0" y1="270" x2="316.0" y2="275" stroke="#94a3b8"/><text x="316.0" y="288" text-anchor="middle" font-size="10" fill="#475569">17.8</text><line x1="444.0" y1="270" x2="444.0" y2="275" stroke="#94a3b8"/><text x="444.0" y="288" text-anchor="middle" font-size="10" fill="#475569">26.8</text><line x1="572.0" y1="270" x2="572.0" y2="275" stroke="#94a3b8"/><text x="572.0" y="288" text-anchor="middle" font-size="10" fill="#475569">35.7</text><line x1="700.0" y1="270" x2="700.0" y2="275" stroke="#94a3b8"/><text x="700.0" y="288" text-anchor="middle" font-size="10" fill="#475569">44.6</text><line x1="55" y1="270.0" x2="60" y2="270.0" stroke="#94a3b8"/><text x="52" y="273.0" text-anchor="end" font-size="10" fill="#475569">0</text><line x1="55" y1="223.8" x2="60" y2="223.8" stroke="#94a3b8"/><text x="52" y="226.8" text-anchor="end" font-size="10" fill="#475569">5</text><line x1="55" y1="177.7" x2="60" y2="177.7" stroke="#94a3b8"/><text x="52" y="180.7" text-anchor="end" font-size="10" fill="#475569">10</text><line x1="55" y1="131.5" x2="60" y2="131.5" stroke="#94a3b8"/><text x="52" y="134.5" text-anchor="end" font-size="10" fill="#475569">15</text><line x1="55" y1="85.4" x2="60" y2="85.4" stroke="#94a3b8"/><text x="52" y="88.4" text-anchor="end" font-size="10" fill="#475569">20</text><line x1="55" y1="30.0" x2="60" y2="30.0" stroke="#94a3b8"/><text x="52" y="33.0" text-anchor="end" font-size="10" fill="#475569">26</text>
    <polyline fill="none" stroke="#2563eb" stroke-width="2" points="60.0,270.0 64.0,260.8 64.0,251.5 64.0,242.3 64.0,233.1 74.2,223.8 74.2,214.6 146.1,205.4 146.1,196.2 400.5,186.9 411.2,177.7 479.7,168.5 479.7,159.2 479.7,150.0 487.7,140.8 500.1,131.5 568.5,122.3 568.5,113.1 568.5,103.8 568.5,94.6 568.5,85.4 574.7,76.2 574.7,66.9 613.8,57.7 613.8,48.5 656.8,39.2 671.2,30.0 700.0,30.0"/>
    <circle cx="64.0" cy="260.8" r="3" fill="#16a34a"/><circle cx="64.0" cy="251.5" r="3" fill="#16a34a"/><circle cx="64.0" cy="242.3" r="3" fill="#16a34a"/><circle cx="64.0" cy="233.1" r="3" fill="#16a34a"/><circle cx="74.2" cy="223.8" r="3" fill="#16a34a"/><circle cx="74.2" cy="214.6" r="3" fill="#16a34a"/><circle cx="146.1" cy="205.4" r="3" fill="#16a34a"/><circle cx="146.1" cy="196.2" r="3" fill="#16a34a"/><circle cx="400.5" cy="186.9" r="3" fill="#16a34a"/><circle cx="411.2" cy="177.7" r="3" fill="#16a34a"/><circle cx="479.7" cy="168.5" r="3" fill="#16a34a"/><circle cx="479.7" cy="159.2" r="3" fill="#16a34a"/><circle cx="479.7" cy="150.0" r="3" fill="#16a34a"/><circle cx="487.7" cy="140.8" r="3" fill="#16a34a"/><circle cx="500.1" cy="131.5" r="3" fill="#16a34a"/><circle cx="568.5" cy="122.3" r="3" fill="#16a34a"/><circle cx="568.5" cy="113.1" r="3" fill="#16a34a"/><circle cx="568.5" cy="103.8" r="3" fill="#16a34a"/><circle cx="568.5" cy="94.6" r="3" fill="#16a34a"/><circle cx="568.5" cy="85.4" r="3" fill="#16a34a"/><circle cx="574.7" cy="76.2" r="3" fill="#16a34a"/><circle cx="574.7" cy="66.9" r="3" fill="#16a34a"/><circle cx="613.8" cy="57.7" r="3" fill="#16a34a"/><circle cx="613.8" cy="48.5" r="3" fill="#16a34a"/><circle cx="656.8" cy="39.2" r="3" fill="#16a34a"/><circle cx="671.2" cy="30.0" r="3" fill="#16a34a"/>
    <text x="380" y="308" text-anchor="middle" font-size="11" fill="#102a43">GPU-hours used (cumulative)</text>
    <text x="14" y="150" text-anchor="middle" font-size="11" fill="#102a43" transform="rotate(-90 14 150)">global-unique success count</text>
    </svg>