<svg xmlns="http://www.w3.org/2000/svg" viewBox="0 0 720 320" style="font-family:sans-serif">
    <text x="360" y="14" text-anchor="middle" font-size="13" font-weight="700" fill="#102a43">Cumulative strict global-unique successes (18)</text>
    <line x1="60" y1="270" x2="700" y2="270" stroke="#94a3b8" stroke-width="1.2"/>
    <line x1="60" y1="30" x2="60" y2="270" stroke="#94a3b8" stroke-width="1.2"/>
    <line x1="60.0" y1="270" x2="60.0" y2="275" stroke="#94a3b8"/><text x="60.0" y="288" text-anchor="middle" font-size="10" fill="#475569">0.0</text><line x1="188.0" y1="270" x2="188.0" y2="275" stroke="#94a3b8"/><text x="188.0" y="288" text-anchor="middle" font-size="10" fill="#475569">6.0</text><line x1="316.0" y1="270" x2="316.0" y2="275" stroke="#94a3b8"/><text x="316.0" y="288" text-anchor="middle" font-size="10" fill="#475569">11.9</text><line x1="444.0" y1="270" x2="444.0" y2="275" stroke="#94a3b8"/><text x="444.0" y="288" text-anchor="middle" font-size="10" fill="#475569">17.9</text><line x1="572.0" y1="270" x2="572.0" y2="275" stroke="#94a3b8"/><text x="572.0" y="288" text-anchor="middle" font-size="10" fill="#475569">23.9</text><line x1="700.0" y1="270" x2="700.0" y2="275" stroke="#94a3b8"/><text x="700.0" y="288" text-anchor="middle" font-size="10" fill="#475569">29.8</text><line x1="55" y1="270.0" x2="60" y2="270.0" stroke="#94a3b8"/><text x="52" y="273.0" text-anchor="end" font-size="10" fill="#475569">0</text><line x1="55" y1="230.0" x2="60" y2="230.0" stroke="#94a3b8"/><text x="52" y="233.0" text-anchor="end" font-size="10" fill="#475569">3</text><line x1="55" y1="176.7" x2="60" y2="176.7" stroke="#94a3b8"/><text x="52" y="179.7" text-anchor="end" font-size="10" fill="#475569">7</text><line x1="55" y1="136.7" x2="60" y2="136.7" stroke="#94a3b8"/><text x="52" y="139.7" text-anchor="end" font-size="10" fill="#475569">10</text><line x1="55" y1="83.3" x2="60" y2="83.3" stroke="#94a3b8"/><text x="52" y="86.3" text-anchor="end" font-size="10" fill="#475569">14</text><line x1="55" y1="30.0" x2="60" y2="30.0" stroke="#94a3b8"/><text x="52" y="33.0" text-anchor="end" font-size="10" fill="#475569">18</text>
    <polyline fill="none" stroke="#2563eb" stroke-width="2" points="60.0,270.0 66.0,256.7 66.0,243.3 66.0,230.0 66.0,216.7 127.5,203.3 219.4,190.0 219.4,176.7 266.7,163.3 266.7,150.0 322.0,136.7 322.0,123.3 536.4,110.0 604.5,96.7 620.0,83.3 620.0,70.0 620.0,56.7 620.0,43.3 626.1,30.0 700.0,30.0"/>
    <circle cx="66.0" cy="256.7" r="3" fill="#16a34a"/><circle cx="66.0" cy="243.3" r="3" fill="#16a34a"/><circle cx="66.0" cy="230.0" r="3" fill="#16a34a"/><circle cx="66.0" cy="216.7" r="3" fill="#16a34a"/><circle cx="127.5" cy="203.3" r="3" fill="#16a34a"/><circle cx="219.4" cy="190.0" r="3" fill="#16a34a"/><circle cx="219.4" cy="176.7" r="3" fill="#16a34a"/><circle cx="266.7" cy="163.3" r="3" fill="#16a34a"/><circle cx="266.7" cy="150.0" r="3" fill="#16a34a"/><circle cx="322.0" cy="136.7" r="3" fill="#16a34a"/><circle cx="322.0" cy="123.3" r="3" fill="#16a34a"/><circle cx="536.4" cy="110.0" r="3" fill="#16a34a"/><circle cx="604.5" cy="96.7" r="3" fill="#16a34a"/><circle cx="620.0" cy="83.3" r="3" fill="#16a34a"/><circle cx="620.0" cy="70.0" r="3" fill="#16a34a"/><circle cx="620.0" cy="56.7" r="3" fill="#16a34a"/><circle cx="620.0" cy="43.3" r="3" fill="#16a34a"/><circle cx="626.1" cy="30.0" r="3" fill="#16a34a"/>
    <text x="380" y="288" text-anchor="middle" font-size="11" fill="#102a43">GPU-hours used (cumulative)</text>
    <text x="14" y="150" text-anchor="middle" font-size="11" fill="#102a43" transform="rotate(-90 14 150)">strict global-unique success count</text>
    <text x="360" y="314" text-anchor="middle" font-size="9" fill="#475569">Success: i_pAE ≤ 7/31 ≈ 0.226 (= paper raw 7 Å, Complexa scale 31) AND pLDDT ≥ 0.90 AND binder scRMSD_ca &lt; 1.5 Å</text>
    </svg>