<svg xmlns="http://www.w3.org/2000/svg" viewBox="0 0 720 320" style="font-family:sans-serif">
    <text x="360" y="14" text-anchor="middle" font-size="13" font-weight="700" fill="#102a43">Cumulative strict global-unique successes (5)</text>
    <line x1="60" y1="270" x2="700" y2="270" stroke="#94a3b8" stroke-width="1.2"/>
    <line x1="60" y1="30" x2="60" y2="270" stroke="#94a3b8" stroke-width="1.2"/>
    <line x1="60.0" y1="270" x2="60.0" y2="275" stroke="#94a3b8"/><text x="60.0" y="288" text-anchor="middle" font-size="10" fill="#475569">0.0</text><line x1="188.0" y1="270" x2="188.0" y2="275" stroke="#94a3b8"/><text x="188.0" y="288" text-anchor="middle" font-size="10" fill="#475569">7.9</text><line x1="316.0" y1="270" x2="316.0" y2="275" stroke="#94a3b8"/><text x="316.0" y="288" text-anchor="middle" font-size="10" fill="#475569">15.9</text><line x1="444.0" y1="270" x2="444.0" y2="275" stroke="#94a3b8"/><text x="444.0" y="288" text-anchor="middle" font-size="10" fill="#475569">23.8</text><line x1="572.0" y1="270" x2="572.0" y2="275" stroke="#94a3b8"/><text x="572.0" y="288" text-anchor="middle" font-size="10" fill="#475569">31.8</text><line x1="700.0" y1="270" x2="700.0" y2="275" stroke="#94a3b8"/><text x="700.0" y="288" text-anchor="middle" font-size="10" fill="#475569">39.7</text><line x1="55" y1="270.0" x2="60" y2="270.0" stroke="#94a3b8"/><text x="52" y="273.0" text-anchor="end" font-size="10" fill="#475569">0</text><line x1="55" y1="222.0" x2="60" y2="222.0" stroke="#94a3b8"/><text x="52" y="225.0" text-anchor="end" font-size="10" fill="#475569">1</text><line x1="55" y1="174.0" x2="60" y2="174.0" stroke="#94a3b8"/><text x="52" y="177.0" text-anchor="end" font-size="10" fill="#475569">2</text><line x1="55" y1="126.0" x2="60" y2="126.0" stroke="#94a3b8"/><text x="52" y="129.0" text-anchor="end" font-size="10" fill="#475569">3</text><line x1="55" y1="78.0" x2="60" y2="78.0" stroke="#94a3b8"/><text x="52" y="81.0" text-anchor="end" font-size="10" fill="#475569">4</text><line x1="55" y1="30.0" x2="60" y2="30.0" stroke="#94a3b8"/><text x="52" y="33.0" text-anchor="end" font-size="10" fill="#475569">5</text>
    <polyline fill="none" stroke="#2563eb" stroke-width="2" points="60.0,270.0 64.5,222.0 123.9,174.0 256.5,126.0 265.4,78.0 482.9,30.0 700.0,30.0"/>
    <circle cx="64.5" cy="222.0" r="3" fill="#16a34a"/><circle cx="123.9" cy="174.0" r="3" fill="#16a34a"/><circle cx="256.5" cy="126.0" r="3" fill="#16a34a"/><circle cx="265.4" cy="78.0" r="3" fill="#16a34a"/><circle cx="482.9" cy="30.0" r="3" fill="#16a34a"/>
    <text x="380" y="288" text-anchor="middle" font-size="11" fill="#102a43">GPU-hours used (cumulative)</text>
    <text x="14" y="150" text-anchor="middle" font-size="11" fill="#102a43" transform="rotate(-90 14 150)">strict global-unique success count</text>
    <text x="360" y="314" text-anchor="middle" font-size="9" fill="#475569">Success: i_pAE ≤ 7/31 ≈ 0.226 (= paper raw 7 Å, Complexa scale 31) AND pLDDT ≥ 0.90 AND binder scRMSD_ca &lt; 1.5 Å</text>
    </svg>